<svg width="22" height="15" viewBox="0 0 22 15" fill="none" xmlns="http://www.w3.org/2000/svg">
<rect width="22" height="15" fill="#030833"/>
<path d="M11 3V6M11 6L8.48502 7.43713M11 6L13.515 7.43713" stroke="url(#paint0_radial_767_70)" stroke-linecap="round"/>
<ellipse cx="10.982" cy="6.00001" rx="0.215569" ry="0.233533" fill="white"/>
<path d="M8.41318 6.90208V4.6345C8.41318 4.56313 8.49095 4.51893 8.5524 4.55521C10.0674 5.44946 11 7.07948 11 8.8387C11 8.90997 10.9225 8.95422 10.8611 8.91799L8.90485 7.76325C8.60015 7.58339 8.41318 7.25591 8.41318 6.90208Z" stroke="white"/>
<path d="M13.5868 7.43096V4.6298C13.5868 4.56058 13.5115 4.51766 13.452 4.55295V4.55295C11.932 5.45374 11 7.08951 11 8.85632V8.99997" stroke="white" stroke-linecap="round"/>
<path d="M8.43115 4.50898L8.53415 4.56876C10.0572 5.45277 11.9388 5.44586 13.4553 4.5507V4.5507C13.5139 4.51612 13.5132 4.43114 13.4541 4.39747L11 3" stroke="white" stroke-linecap="round"/>
<path d="M6.332 11H6.052L5.418 10.042V11H5.138V9.602H5.418L6.052 10.562V9.602H6.332V11ZM7.8387 10.422C7.8387 10.462 7.83604 10.498 7.8307 10.53H7.0207C7.02737 10.61 7.05537 10.6727 7.1047 10.718C7.15404 10.7633 7.2147 10.786 7.2867 10.786C7.3907 10.786 7.4647 10.7413 7.5087 10.652H7.8107C7.7787 10.7587 7.71737 10.8467 7.6267 10.916C7.53604 10.984 7.4247 11.018 7.2927 11.018C7.18604 11.018 7.09004 10.9947 7.0047 10.948C6.9207 10.9 6.8547 10.8327 6.8067 10.746C6.76004 10.6593 6.7367 10.5593 6.7367 10.446C6.7367 10.3313 6.76004 10.2307 6.8067 10.144C6.85337 10.0573 6.9187 9.99067 7.0027 9.944C7.0867 9.89733 7.18337 9.874 7.2927 9.874C7.39804 9.874 7.49204 9.89667 7.5747 9.942C7.6587 9.98733 7.72337 10.052 7.7687 10.136C7.81537 10.2187 7.8387 10.314 7.8387 10.422ZM7.5487 10.342C7.54737 10.27 7.52137 10.2127 7.4707 10.17C7.42004 10.126 7.35804 10.104 7.2847 10.104C7.21537 10.104 7.1567 10.1253 7.1087 10.168C7.06204 10.2093 7.03337 10.2673 7.0227 10.342H7.5487ZM9.28908 9.892V11H9.00708V10.86C8.97108 10.908 8.92374 10.946 8.86508 10.974C8.80774 11.0007 8.74508 11.014 8.67708 11.014C8.59041 11.014 8.51374 10.996 8.44708 10.96C8.38041 10.9227 8.32774 10.8687 8.28908 10.798C8.25174 10.726 8.23308 10.6407 8.23308 10.542V9.892H8.51308V10.502C8.51308 10.59 8.53508 10.658 8.57908 10.706C8.62308 10.7527 8.68308 10.776 8.75908 10.776C8.83641 10.776 8.89708 10.7527 8.94108 10.706C8.98508 10.658 9.00708 10.59 9.00708 10.502V9.892H9.28908ZM10.0453 10.064C10.0813 10.0053 10.128 9.95933 10.1853 9.926C10.244 9.89267 10.3107 9.876 10.3853 9.876V10.17H10.3113C10.2233 10.17 10.1567 10.1907 10.1113 10.232C10.0673 10.2733 10.0453 10.3453 10.0453 10.448V11H9.76534V9.892H10.0453V10.064ZM11.2659 11.018C11.1593 11.018 11.0633 10.9947 10.9779 10.948C10.8926 10.9 10.8253 10.8327 10.7759 10.746C10.7279 10.6593 10.7039 10.5593 10.7039 10.446C10.7039 10.3327 10.7286 10.2327 10.7779 10.146C10.8286 10.0593 10.8973 9.99267 10.9839 9.946C11.0706 9.898 11.1673 9.874 11.2739 9.874C11.3806 9.874 11.4773 9.898 11.5639 9.946C11.6506 9.99267 11.7186 10.0593 11.7679 10.146C11.8186 10.2327 11.8439 10.3327 11.8439 10.446C11.8439 10.5593 11.8179 10.6593 11.7659 10.746C11.7153 10.8327 11.6459 10.9 11.5579 10.948C11.4713 10.9947 11.3739 11.018 11.2659 11.018ZM11.2659 10.774C11.3166 10.774 11.3639 10.762 11.4079 10.738C11.4533 10.7127 11.4893 10.6753 11.5159 10.626C11.5426 10.5767 11.5559 10.5167 11.5559 10.446C11.5559 10.3407 11.5279 10.26 11.4719 10.204C11.4173 10.1467 11.3499 10.118 11.2699 10.118C11.1899 10.118 11.1226 10.1467 11.0679 10.204C11.0146 10.26 10.9879 10.3407 10.9879 10.446C10.9879 10.5513 11.0139 10.6327 11.0659 10.69C11.1193 10.746 11.1859 10.774 11.2659 10.774ZM12.5293 10.778H12.9893V11H12.2493V9.604H12.5293V10.778ZM13.2953 10.442C13.2953 10.33 13.3173 10.2307 13.3613 10.144C13.4066 10.0573 13.4673 9.99067 13.5433 9.944C13.6206 9.89733 13.7066 9.874 13.8013 9.874C13.884 9.874 13.956 9.89067 14.0173 9.924C14.08 9.95733 14.13 9.99933 14.1673 10.05V9.892H14.4493V11H14.1673V10.838C14.1313 10.89 14.0813 10.9333 14.0173 10.968C13.9546 11.0013 13.882 11.018 13.7993 11.018C13.706 11.018 13.6206 10.994 13.5433 10.946C13.4673 10.898 13.4066 10.8307 13.3613 10.744C13.3173 10.656 13.2953 10.5553 13.2953 10.442ZM14.1673 10.446C14.1673 10.378 14.154 10.32 14.1273 10.272C14.1006 10.2227 14.0646 10.1853 14.0193 10.16C13.974 10.1333 13.9253 10.12 13.8733 10.12C13.8213 10.12 13.7733 10.1327 13.7293 10.158C13.6853 10.1833 13.6493 10.2207 13.6213 10.27C13.5946 10.318 13.5813 10.3753 13.5813 10.442C13.5813 10.5087 13.5946 10.5673 13.6213 10.618C13.6493 10.6673 13.6853 10.7053 13.7293 10.732C13.7746 10.7587 13.8226 10.772 13.8733 10.772C13.9253 10.772 13.974 10.7593 14.0193 10.734C14.0646 10.7073 14.1006 10.67 14.1273 10.622C14.154 10.5727 14.1673 10.514 14.1673 10.446ZM15.2028 10.054C15.2388 10.0007 15.2881 9.95733 15.3508 9.924C15.4148 9.89067 15.4874 9.874 15.5688 9.874C15.6634 9.874 15.7488 9.89733 15.8248 9.944C15.9021 9.99067 15.9628 10.0573 16.0068 10.144C16.0521 10.2293 16.0748 10.3287 16.0748 10.442C16.0748 10.5553 16.0521 10.656 16.0068 10.744C15.9628 10.8307 15.9021 10.898 15.8248 10.946C15.7488 10.994 15.6634 11.018 15.5688 11.018C15.4861 11.018 15.4134 11.002 15.3508 10.97C15.2894 10.9367 15.2401 10.894 15.2028 10.842V11H14.9228V9.52H15.2028V10.054ZM15.7888 10.442C15.7888 10.3753 15.7748 10.318 15.7468 10.27C15.7201 10.2207 15.6841 10.1833 15.6388 10.158C15.5948 10.1327 15.5468 10.12 15.4948 10.12C15.4441 10.12 15.3961 10.1333 15.3508 10.16C15.3068 10.1853 15.2708 10.2227 15.2428 10.272C15.2161 10.3213 15.2028 10.3793 15.2028 10.446C15.2028 10.5127 15.2161 10.5707 15.2428 10.62C15.2708 10.6693 15.3068 10.7073 15.3508 10.734C15.3961 10.7593 15.4441 10.772 15.4948 10.772C15.5468 10.772 15.5948 10.7587 15.6388 10.732C15.6841 10.7053 15.7201 10.6673 15.7468 10.618C15.7748 10.5687 15.7888 10.51 15.7888 10.442Z" fill="white"/>
<defs>
<radialGradient id="paint0_radial_767_70" cx="0" cy="0" r="1" gradientUnits="userSpaceOnUse" gradientTransform="translate(11.0179 6) rotate(90) scale(1.95808 2.21969)">
<stop/>
<stop offset="0.292888" stop-color="#4B4B4B"/>
<stop offset="0.54145" stop-color="#828282"/>
<stop offset="1" stop-color="white"/>
</radialGradient>
</defs>
</svg>
